<?xml version="1.0" encoding="iso-8859-1"?>
<!-- Generator: Adobe Illustrator 19.0.0, SVG Export Plug-In . SVG Version: 6.00 Build 0)  -->
<svg version="1.1" id="Capa_1" xmlns="http://www.w3.org/2000/svg" xmlns:xlink="http://www.w3.org/1999/xlink" x="0px" y="0px"
	 viewBox="0 0 244.552 244.552" style="enable-background:new 0 0 244.552 244.552;" xml:space="preserve">
<g>
	<g>
		<path fill="#d44a7b" d="M122.276,25.223c-53.515,0-97.053,43.538-97.053,97.054s43.538,97.054,97.053,97.054
			c53.516,0,97.054-43.538,97.054-97.054S175.792,25.223,122.276,25.223z M122.276,202.33c-44.142,0-80.053-35.912-80.053-80.054
			s35.912-80.054,80.053-80.054s80.054,35.912,80.054,80.054S166.418,202.33,122.276,202.33z"/>
		<path fill="#d44a7b" d="M122.276,0C54.853,0,0,54.853,0,122.276s54.853,122.276,122.276,122.276c67.424,0,122.276-54.853,122.276-122.276
			S189.7,0,122.276,0z M122.276,227.553C64.227,227.553,17,180.326,17,122.276S64.227,17,122.276,17s105.276,47.227,105.276,105.276
			S180.326,227.553,122.276,227.553z"/>
		<path fill="#d44a7b" d="M157.995,99.048l-31.445-18.29c-0.4-0.232-0.815-0.431-1.239-0.593c-0.001,0-0.001,0-0.001,0
			c-0.006-0.002-0.011-0.004-0.016-0.006c0,0,0,0-0.001,0c-0.005-0.002-0.01-0.005-0.016-0.007c0,0-0.005-0.002-0.008-0.003
			c0,0,0,0-0.001,0c-0.003-0.002-0.007,0-0.009-0.004c-0.006,0-0.008-0.003-0.01-0.003c-0.003-0.002-0.004,0-0.01-0.004
			c-0.003,0.001-0.006-0.002-0.009-0.003c-0.003,0-0.006-0.003-0.009-0.004h-0.001c-0.003-0.001-0.006-0.002-0.009-0.003
			s-0.007-0.002-0.008-0.003c-1.426-0.524-2.958-0.651-4.435-0.386c-0.002-0.001-0.003-0.001-0.004,0
			c-0.672,0.122-1.332,0.324-1.966,0.608c-0.004,0.002-0.008,0.004-0.012,0.006c-0.002,0-0.004,0.002-0.006,0.002
			c-0.002,0.002-0.004,0.005-0.008,0.004c-0.004,0.002-0.005,0.003-0.007,0.003c-0.008,0.004-0.015,0.007-0.022,0.011
			c-0.25,0.113-0.495,0.24-0.734,0.379c-0.002,0.002-0.005,0.004-0.008,0.005l-31.445,18.29c-2.715,1.579-4.229,4.43-4.228,7.359
			c0,1.449,0.373,2.919,1.154,4.262c2.36,4.059,7.563,5.435,11.621,3.074l18.672-10.86v53.564c0,4.694,3.806,8.5,8.5,8.5
			s8.5-3.806,8.5-8.5v-53.564l18.672,10.86c4.057,2.359,9.261,0.984,11.621-3.074C163.43,106.611,162.054,101.408,157.995,99.048z"
			/>
	</g>
	<g>
	</g>
	<g>
	</g>
	<g>
	</g>
	<g>
	</g>
	<g>
	</g>
	<g>
	</g>
	<g>
	</g>
	<g>
	</g>
	<g>
	</g>
	<g>
	</g>
	<g>
	</g>
	<g>
	</g>
	<g>
	</g>
	<g>
	</g>
	<g>
	</g>
</g>
<g>
</g>
<g>
</g>
<g>
</g>
<g>
</g>
<g>
</g>
<g>
</g>
<g>
</g>
<g>
</g>
<g>
</g>
<g>
</g>
<g>
</g>
<g>
</g>
<g>
</g>
<g>
</g>
<g>
</g>
</svg>
